<svg id="aae6b71f-77c2-4275-873f-1d7abba93bb5" data-name="レイヤー 1" xmlns="http://www.w3.org/2000/svg" width="80" height="52" viewBox="0 0 80 52"><defs><style>.\33 696f454-646c-4e10-893d-49889cb3dd50{fill:red;}.\31 0b8d379-ad7f-4488-b83d-f428e77f6704{fill:#1e1e1e;}</style></defs><title>logo_lisb</title><circle class="3696f454-646c-4e10-893d-49889cb3dd50" cx="30.732" cy="15.7" r="5.595"/><path class="10b8d379-ad7f-4488-b83d-f428e77f6704" d="M75.343,33.152a8.567,8.567,0,0,0-4.468-3.388A8.4,8.4,0,0,0,73.8,23.292a10.225,10.225,0,0,0-.9-4.144,9.567,9.567,0,0,0-2.371-3.383A8.514,8.514,0,0,0,66.914,13.9a23.407,23.407,0,0,0-5.688-.553H56.649v-.013H43.084A12.6,12.6,0,1,0,28.361,28.077V43.863H8.367V13.344H3V48.908l41.66-.026h0a8.061,8.061,0,0,0,5.577-2.046,7.039,7.039,0,0,0,2.393-5.427A5.552,5.552,0,0,0,51.2,37.391a17.772,17.772,0,0,0-5.551-3.27q-3-1.267-3-2.556a1.569,1.569,0,0,1,.51-1.2,1.707,1.707,0,0,1,1.222-.475q1.491,0,2.511,2.049l4.283-2.277q-2.1-4.446-6.406-4.447A7.026,7.026,0,0,0,39.8,27.119,6.4,6.4,0,0,0,37.8,31.957a5.457,5.457,0,0,0,1.176,3.62,9.743,9.743,0,0,0,3.179,2.205c.537.271,1.064.516,1.587.765s1.044.494,1.566.762c1.351.8,2.027,1.657,2.027,2.572,0,1.348-.841,1.973-2.592,1.973l-.078,0v0H33.544V27.97a12.609,12.609,0,0,0,9.481-9.607H55.884V48.908H64.01a22.954,22.954,0,0,0,6.058-.676,9.613,9.613,0,0,0,3.987-2.46,10.028,10.028,0,0,0,1.288-12.62ZM30.711,23.447A7.751,7.751,0,1,1,38.46,15.7,7.76,7.76,0,0,1,30.711,23.447Zm30.539-5.174h1.887a5.939,5.939,0,0,1,4.143,1.3,4.887,4.887,0,0,1,1.434,3.813,5.129,5.129,0,0,1-1.4,3.9,6.211,6.211,0,0,1-4.388,1.326H61.251Zm8.659,24.159q-1.7,1.429-5.345,1.431H61.251V33.107h2.715c2.887,0,4.889.516,6.01,1.536A5.013,5.013,0,0,1,71.7,38.512,4.944,4.944,0,0,1,69.909,42.432Z"/></svg>